<svg xmlns="http://www.w3.org/2000/svg" xmlns:xlink="http://www.w3.org/1999/xlink" width="1060" height="839.85"><rect width="1060" height="839.85" rx="5" ry="5" class="a"/><svg y="0%" x="0%"><circle cx="20" cy="20" r="6" fill="#ff5f58"/><circle cx="40" cy="20" r="6" fill="#ffbd2e"/><circle cx="60" cy="20" r="6" fill="#18c132"/></svg><svg height="759.85" viewBox="0 0 100 75.985" width="1000" x="25" xmlns="http://www.w3.org/2000/svg" xmlns:xlink="http://www.w3.org/1999/xlink" y="60"><style>@keyframes i{0%{transform:translateX(0)}.3%{transform:translateX(-100px)}36.5%{transform:translateX(-200px)}to{transform:translateX(-400px)}}.a{fill:#282d35}.f{fill:#b9c0cb;white-space:pre}</style><g font-family="Monaco,Consolas,Menlo,'Bitstream Vera Sans Mono','Powerline Symbols',monospace" font-size="1.67"><defs><symbol id="1"><text y="1.67" class="f">$</text><text x="2.004" y="1.67" class="f">pip</text><text x="6.012" y="1.67" class="f">install</text><text x="14.028" y="1.67" class="f">regula-ai</text></symbol><symbol id="2"><text y="1.67" class="f">Successfully</text><text x="13.026" y="1.67" class="f">installed</text><text x="23.046" y="1.67" class="f">regula-ai-1.6.1</text></symbol><symbol id="3"><text x="4.008" y="1.67" class="f">metrics</text><text x="24.048" y="1.67" class="f">Show</text><text x="29.058" y="1.67" class="f">local</text><text x="35.07" y="1.67" class="f">usage</text><text x="41.082" y="1.67" class="f">statistics</text><text x="52.104" y="1.67" class="f">(never</text><text x="59.118" y="1.67" class="f">sent)</text></symbol><symbol id="4"><text x="4.008" y="1.67" class="f">security-self-check</text></symbol><symbol id="5"><text x="24.048" y="1.67" class="f">Verify</text><text x="31.062" y="1.67" class="f">regula&apos;s</text><text x="40.08" y="1.67" class="f">own</text><text x="44.088" y="1.67" class="f">source</text><text x="51.102" y="1.67" class="f">is</text><text x="54.108" y="1.67" class="f">clean</text></symbol><symbol id="6"><text x="4.008" y="1.67" class="f">self-test</text><text x="24.048" y="1.67" class="f">Verify</text><text x="31.062" y="1.67" class="f">installation</text><text x="44.088" y="1.67" class="f">works</text></symbol><symbol id="7"><text x="4.008" y="1.67" class="f">sbom</text><text x="24.048" y="1.67" class="f">Generate</text><text x="33.066" y="1.67" class="f">AI</text><text x="36.072" y="1.67" class="f">Software</text><text x="45.09" y="1.67" class="f">Bill</text><text x="50.1" y="1.67" class="f">of</text><text x="53.106" y="1.67" class="f">Materials</text><text x="63.126" y="1.67" class="f">(CycloneDX</text><text x="74.148" y="1.67" class="f">1.6)</text></symbol><symbol id="8"><text x="4.008" y="1.67" class="f">agent</text><text x="24.048" y="1.67" class="f">Agentic</text><text x="32.064" y="1.67" class="f">AI</text><text x="35.07" y="1.67" class="f">governance</text><text x="46.092" y="1.67" class="f">monitoring</text></symbol><symbol id="9"><text x="4.008" y="1.67" class="f">inventory</text><text x="24.048" y="1.67" class="f">Scan</text><text x="29.058" y="1.67" class="f">codebase</text><text x="38.076" y="1.67" class="f">for</text><text x="42.084" y="1.67" class="f">AI</text><text x="45.09" y="1.67" class="f">model</text><text x="51.102" y="1.67" class="f">references</text><text x="62.124" y="1.67" class="f">(GPAI</text><text x="68.136" y="1.67" class="f">tier</text><text x="73.146" y="1.67" class="f">annotations)</text></symbol><symbol id="10"><text x="4.008" y="1.67" class="f">assess</text><text x="24.048" y="1.67" class="f">EU</text><text x="27.054" y="1.67" class="f">AI</text><text x="30.06" y="1.67" class="f">Act</text><text x="34.068" y="1.67" class="f">applicability</text><text x="48.096" y="1.67" class="f">check</text><text x="54.108" y="1.67" class="f">--</text><text x="57.114" y="1.67" class="f">does</text><text x="62.124" y="1.67" class="f">this</text><text x="67.134" y="1.67" class="f">apply</text><text x="73.146" y="1.67" class="f">to</text><text x="76.152" y="1.67" class="f">your</text><text x="81.162" y="1.67" class="f">product?</text><text x="90.18" y="1.67" class="f">(no</text><text x="94.188" y="1.67" class="f">code</text><text x="99.198" y="1.67" class="f">r</text></symbol><symbol id="11"><text y="1.67" class="f">equired)</text></symbol><symbol id="12"><text x="4.008" y="1.67" class="f">quickstart</text><text x="24.048" y="1.67" class="f">60-second</text><text x="34.068" y="1.67" class="f">onboarding</text><text x="45.09" y="1.67" class="f">(create</text><text x="53.106" y="1.67" class="f">policy</text><text x="60.12" y="1.67" class="f">+</text><text x="62.124" y="1.67" class="f">first</text><text x="68.136" y="1.67" class="f">scan)</text></symbol><symbol id="13"><text x="4.008" y="1.67" class="f">feedback</text><text x="24.048" y="1.67" class="f">Report</text><text x="31.062" y="1.67" class="f">a</text><text x="33.066" y="1.67" class="f">false</text><text x="39.078" y="1.67" class="f">positive,</text><text x="49.098" y="1.67" class="f">false</text><text x="55.11" y="1.67" class="f">negative,</text><text x="65.13" y="1.67" class="f">or</text><text x="68.136" y="1.67" class="f">bug</text><text x="72.144" y="1.67" class="f">(opens</text><text x="79.158" y="1.67" class="f">pre-filled</text><text x="90.18" y="1.67" class="f">GitHub</text><text x="97.194" y="1.67" class="f">Iss</text></symbol><symbol id="14"><text y="1.67" class="f">ue)</text></symbol><symbol id="15"><text x="4.008" y="1.67" class="f">telemetry</text><text x="24.048" y="1.67" class="f">Manage</text><text x="31.062" y="1.67" class="f">anonymous</text><text x="41.082" y="1.67" class="f">crash</text><text x="47.094" y="1.67" class="f">report</text><text x="54.108" y="1.67" class="f">consent</text></symbol><symbol id="16"><text x="4.008" y="1.67" class="f">config</text><text x="24.048" y="1.67" class="f">Config</text><text x="31.062" y="1.67" class="f">management</text><text x="42.084" y="1.67" class="f">(validate,</text><text x="53.106" y="1.67" class="f">etc.)</text></symbol><symbol id="17"><text y="1.67" class="f">options:</text></symbol><symbol id="18"><text x="2.004" y="1.67" class="f">-h,</text><text x="6.012" y="1.67" class="f">--help</text><text x="24.048" y="1.67" class="f">show</text><text x="29.058" y="1.67" class="f">this</text><text x="34.068" y="1.67" class="f">help</text><text x="39.078" y="1.67" class="f">message</text><text x="47.094" y="1.67" class="f">and</text><text x="51.102" y="1.67" class="f">exit</text></symbol><symbol id="19"><text x="2.004" y="1.67" class="f">--ci</text><text x="24.048" y="1.67" class="f">CI</text><text x="27.054" y="1.67" class="f">mode:</text><text x="33.066" y="1.67" class="f">exit</text><text x="38.076" y="1.67" class="f">1</text><text x="40.08" y="1.67" class="f">on</text><text x="43.086" y="1.67" class="f">any</text><text x="47.094" y="1.67" class="f">WARN</text><text x="52.104" y="1.67" class="f">or</text><text x="55.11" y="1.67" class="f">BLOCK</text><text x="61.122" y="1.67" class="f">finding</text><text x="69.138" y="1.67" class="f">(implies</text><text x="78.156" y="1.67" class="f">--strict)</text></symbol><symbol id="20"><text x="2.004" y="1.67" class="f">--config</text><text x="11.022" y="1.67" class="f">CONFIG</text><text x="24.048" y="1.67" class="f">Custom</text><text x="31.062" y="1.67" class="f">policy</text><text x="38.076" y="1.67" class="f">configuration</text><text x="52.104" y="1.67" class="f">file</text><text x="57.114" y="1.67" class="f">path</text></symbol><symbol id="21"><text x="2.004" y="1.67" class="f">--rules</text><text x="10.02" y="1.67" class="f">RULES</text><text x="24.048" y="1.67" class="f">Path</text><text x="29.058" y="1.67" class="f">to</text><text x="32.064" y="1.67" class="f">custom</text><text x="39.078" y="1.67" class="f">rules</text><text x="45.09" y="1.67" class="f">file</text><text x="50.1" y="1.67" class="f">(regula-rules.yaml)</text></symbol><symbol id="22"><text x="2.004" y="1.67" class="f">--lang</text><text x="9.018" y="1.67" class="f">{en,pt-BR,de}</text><text x="24.048" y="1.67" class="f">Output</text><text x="31.062" y="1.67" class="f">language</text><text x="40.08" y="1.67" class="f">(default:</text><text x="50.1" y="1.67" class="f">en)</text></symbol><symbol id="23"><text x="2.004" y="1.67" class="f">--version</text><text x="24.048" y="1.67" class="f">show</text><text x="29.058" y="1.67" class="f">program&apos;s</text><text x="39.078" y="1.67" class="f">version</text><text x="47.094" y="1.67" class="f">number</text><text x="54.108" y="1.67" class="f">and</text><text x="58.116" y="1.67" class="f">exit</text></symbol><symbol id="24"><text y="1.67" class="f">Examples:</text></symbol><symbol id="25"><text x="2.004" y="1.67" class="f">regula</text><text x="9.018" y="1.67" class="f">check</text><text x="15.03" y="1.67" class="f">.</text><text x="42.084" y="1.67" class="f">Scan</text><text x="47.094" y="1.67" class="f">current</text><text x="55.11" y="1.67" class="f">directory</text></symbol><symbol id="26"><text x="2.004" y="1.67" class="f">regula</text><text x="9.018" y="1.67" class="f">check</text><text x="15.03" y="1.67" class="f">--format</text><text x="24.048" y="1.67" class="f">sarif</text><text x="30.06" y="1.67" class="f">.</text><text x="42.084" y="1.67" class="f">Output</text><text x="49.098" y="1.67" class="f">SARIF</text><text x="55.11" y="1.67" class="f">for</text><text x="59.118" y="1.67" class="f">CI/CD</text></symbol><symbol id="27"><text x="2.004" y="1.67" class="f">regula</text><text x="9.018" y="1.67" class="f">plan</text><text x="14.028" y="1.67" class="f">--project</text><text x="24.048" y="1.67" class="f">.</text><text x="42.084" y="1.67" class="f">Prioritised</text><text x="54.108" y="1.67" class="f">remediation</text><text x="66.132" y="1.67" class="f">plan</text></symbol><symbol id="28"><text x="2.004" y="1.67" class="f">regula</text><text x="9.018" y="1.67" class="f">evidence-pack</text><text x="23.046" y="1.67" class="f">--project</text><text x="33.066" y="1.67" class="f">.</text><text x="42.084" y="1.67" class="f">Auditor-ready</text><text x="56.112" y="1.67" class="f">evidence</text><text x="65.13" y="1.67" class="f">package</text></symbol><symbol id="29"><text x="2.004" y="1.67" class="f">regula</text><text x="9.018" y="1.67" class="f">fix</text><text x="13.026" y="1.67" class="f">--project</text><text x="23.046" y="1.67" class="f">.</text><text x="42.084" y="1.67" class="f">Compliance</text><text x="53.106" y="1.67" class="f">code</text><text x="58.116" y="1.67" class="f">scaffolds</text></symbol><symbol id="30"><text x="2.004" y="1.67" class="f">regula</text><text x="9.018" y="1.67" class="f">disclose</text><text x="18.036" y="1.67" class="f">--type</text><text x="25.05" y="1.67" class="f">chatbot</text><text x="42.084" y="1.67" class="f">Article</text><text x="50.1" y="1.67" class="f">50</text><text x="53.106" y="1.67" class="f">transparency</text><text x="66.132" y="1.67" class="f">notices</text></symbol><symbol id="31"><text x="2.004" y="1.67" class="f">regula</text><text x="9.018" y="1.67" class="f">docs</text><text x="14.028" y="1.67" class="f">--project</text><text x="24.048" y="1.67" class="f">.</text><text x="26.052" y="1.67" class="f">--qms</text><text x="41.082" y="1.67" class="f">Generate</text><text x="50.1" y="1.67" class="f">Annex</text><text x="56.112" y="1.67" class="f">IV</text><text x="59.118" y="1.67" class="f">+</text><text x="61.122" y="1.67" class="f">QMS</text><text x="65.13" y="1.67" class="f">scaffolds</text></symbol><symbol id="a"><path fill="transparent" d="M0 0h100v36H0z"/></symbol><symbol id="b"><path fill="#6f7683" d="M0 0h1.102v2.171H0z"/></symbol></defs><path class="a" d="M0 0h100v75.985H0z"/><g style="animation-duration:.838973s;animation-iteration-count:infinite;animation-name:i;animation-timing-function:steps(1,end)"><svg width="500"><svg><use xlink:href="#a"/><use xlink:href="#b" x="-.004"/></svg><svg x="100"><use xlink:href="#a"/><use xlink:href="#b" x="-.004" y="4.317"/><use xlink:href="#1"/><use xlink:href="#2" y="2.171"/></svg><svg x="200"><use xlink:href="#a"/><use xlink:href="#b" x="-.004" y="8.659"/><use xlink:href="#1"/><use xlink:href="#2" y="2.171"/><text y="8.183" class="f">$</text><text x="2.004" y="8.183" class="f">regula</text></svg><svg x="300"><use xlink:href="#a"/><use xlink:href="#b" x="41.996" y="75.96"/><text x="4.008" y="1.67" class="f">benchmark</text><text x="24.048" y="1.67" class="f">Real-world</text><text x="35.07" y="1.67" class="f">validation</text><text x="46.092" y="1.67" class="f">benchmark</text><text x="4.008" y="3.841" class="f">timeline</text><text x="24.048" y="3.841" class="f">EU</text><text x="27.054" y="3.841" class="f">AI</text><text x="30.06" y="3.841" class="f">Act</text><text x="34.068" y="3.841" class="f">enforcement</text><text x="46.092" y="3.841" class="f">timeline</text><text x="4.008" y="6.012" class="f">deps</text><text x="24.048" y="6.012" class="f">AI</text><text x="27.054" y="6.012" class="f">dependency</text><text x="38.076" y="6.012" class="f">supply</text><text x="45.09" y="6.012" class="f">chain</text><text x="51.102" y="6.012" class="f">analysis</text><text x="4.008" y="8.183" class="f">doctor</text><text x="24.048" y="8.183" class="f">Check</text><text x="30.06" y="8.183" class="f">installation</text><text x="43.086" y="8.183" class="f">health</text><use xlink:href="#3" y="8.684"/><use xlink:href="#4" y="10.855"/><use xlink:href="#5" y="13.026"/><use xlink:href="#6" y="15.197"/><use xlink:href="#7" y="17.368"/><use xlink:href="#8" y="19.539"/><use xlink:href="#9" y="21.71"/><use xlink:href="#10" y="23.881"/><use xlink:href="#11" y="26.052"/><use xlink:href="#12" y="28.223"/><use xlink:href="#13" y="30.394"/><use xlink:href="#14" y="32.565"/><use xlink:href="#15" y="34.736"/><use xlink:href="#16" y="36.907"/><use xlink:href="#17" y="41.249"/><use xlink:href="#18" y="43.42"/><use xlink:href="#19" y="45.591"/><use xlink:href="#20" y="47.762"/><use xlink:href="#21" y="49.933"/><use xlink:href="#22" y="52.104"/><use xlink:href="#23" y="54.275"/><use xlink:href="#24" y="58.617"/><use xlink:href="#25" y="60.788"/><use xlink:href="#26" y="62.959"/><use xlink:href="#27" y="65.13"/><use xlink:href="#28" y="67.301"/><use xlink:href="#29" y="69.472"/><use xlink:href="#30" y="71.643"/><use xlink:href="#31" y="73.814"/><text x="2.004" y="77.655" class="f">regula</text><text x="9.018" y="77.655" class="f">gap</text><text x="13.026" y="77.655" class="f">--project</text><text x="23.046" y="77.655" class="f">.</text></svg><svg x="400"><use xlink:href="#a"/><use xlink:href="#b" x="-.004" y="75.96"/><use xlink:href="#3"/><use xlink:href="#4" y="2.171"/><use xlink:href="#5" y="4.342"/><use xlink:href="#6" y="6.513"/><use xlink:href="#7" y="8.684"/><use xlink:href="#8" y="10.855"/><use xlink:href="#9" y="13.026"/><use xlink:href="#10" y="15.197"/><use xlink:href="#11" y="17.368"/><use xlink:href="#12" y="19.539"/><use xlink:href="#13" y="21.71"/><use xlink:href="#14" y="23.881"/><use xlink:href="#15" y="26.052"/><use xlink:href="#16" y="28.223"/><use xlink:href="#17" y="32.565"/><use xlink:href="#18" y="34.736"/><use xlink:href="#19" y="36.907"/><use xlink:href="#20" y="39.078"/><use xlink:href="#21" y="41.249"/><use xlink:href="#22" y="43.42"/><use xlink:href="#23" y="45.591"/><use xlink:href="#24" y="49.933"/><use xlink:href="#25" y="52.104"/><use xlink:href="#26" y="54.275"/><use xlink:href="#27" y="56.446"/><use xlink:href="#28" y="58.617"/><use xlink:href="#29" y="60.788"/><use xlink:href="#30" y="62.959"/><use xlink:href="#31" y="65.13"/><text x="2.004" y="68.971" class="f">regula</text><text x="9.018" y="68.971" class="f">gap</text><text x="13.026" y="68.971" class="f">--project</text><text x="23.046" y="68.971" class="f">.</text><text x="42.084" y="68.971" class="f">Compliance</text><text x="53.106" y="68.971" class="f">gap</text><text x="57.114" y="68.971" class="f">assessment</text><text x="68.136" y="68.971" class="f">(Articles</text><text x="78.156" y="68.971" class="f">9-15)</text><text x="2.004" y="71.142" class="f">regula</text><text x="9.018" y="71.142" class="f">timeline</text><text x="42.084" y="71.142" class="f">EU</text><text x="45.09" y="71.142" class="f">AI</text><text x="48.096" y="71.142" class="f">Act</text><text x="52.104" y="71.142" class="f">enforcement</text><text x="64.128" y="71.142" class="f">dates</text><text x="2.004" y="73.313" class="f">regula</text><text x="9.018" y="73.313" class="f">deps</text><text x="14.028" y="73.313" class="f">--project</text><text x="24.048" y="73.313" class="f">.</text><text x="42.084" y="73.313" class="f">AI</text><text x="45.09" y="73.313" class="f">dependency</text><text x="56.112" y="73.313" class="f">supply</text><text x="63.126" y="73.313" class="f">chain</text><text x="69.138" y="73.313" class="f">analysis</text><text x="2.004" y="75.484" class="f">regula</text><text x="9.018" y="75.484" class="f">audit</text><text x="15.03" y="75.484" class="f">verify</text><text x="42.084" y="75.484" class="f">Verify</text><text x="49.098" y="75.484" class="f">audit</text><text x="55.11" y="75.484" class="f">chain</text><text x="61.122" y="75.484" class="f">integrity</text></svg></svg></g></g></svg></svg>