<svg xmlns="http://www.w3.org/2000/svg" xmlns:xlink="http://www.w3.org/1999/xlink" width="1060" height="839.85"><rect width="1060" height="839.85" rx="5" ry="5" class="a"/><svg y="0%" x="0%"><circle cx="20" cy="20" r="6" fill="#ff5f58"/><circle cx="40" cy="20" r="6" fill="#ffbd2e"/><circle cx="60" cy="20" r="6" fill="#18c132"/></svg><svg height="759.85" viewBox="0 0 100 75.985" width="1000" x="25" xmlns="http://www.w3.org/2000/svg" xmlns:xlink="http://www.w3.org/1999/xlink" y="60"><style>@keyframes i{0%{transform:translateX(0)}.3%{transform:translateX(-100px)}33.6%{transform:translateX(-200px)}to{transform:translateX(-300px)}}.a{fill:#282d35}.f,.k{fill:#b9c0cb;white-space:pre}.k{fill:#dbab79}</style><g font-family="Monaco,Consolas,Menlo,'Bitstream Vera Sans Mono','Powerline Symbols',monospace" font-size="1.67"><defs><symbol id="1"><text y="1.67" class="f">$</text><text x="2.004" y="1.67" class="f">cd</text><text x="5.01" y="1.67" class="f">my-ai-app</text></symbol><symbol id="2"><text y="1.67" class="f">$</text><text x="2.004" y="1.67" class="f">regula</text><text x="9.018" y="1.67" class="f">check</text><text x="15.03" y="1.67" class="f">.</text></symbol><symbol id="3"><text y="1.67" class="f">============================================================</text></symbol><symbol id="a"><path fill="transparent" d="M0 0h100v36H0z"/></symbol><symbol id="b"><path fill="#6f7683" d="M0 0h1.102v2.171H0z"/></symbol></defs><path class="a" d="M0 0h100v75.985H0z"/><g style="animation-duration:.92777s;animation-iteration-count:infinite;animation-name:i;animation-timing-function:steps(1,end)"><svg width="400"><svg><use xlink:href="#a"/><use xlink:href="#b" x="-.004"/></svg><svg x="100"><use xlink:href="#a"/><use xlink:href="#b" x="-.004" y="2.146"/><use xlink:href="#1"/></svg><svg x="200"><use xlink:href="#a"/><use xlink:href="#b" x="-.004" y="4.317"/><use xlink:href="#1"/><use xlink:href="#2" y="2.171"/></svg><svg x="300"><use xlink:href="#a"/><use xlink:href="#b" x="-.004" y="52.079"/><use xlink:href="#1"/><use xlink:href="#2" y="2.171"/><text y="8.183" class="f">Regula</text><text x="7.014" y="8.183" class="f">Scan:</text><text x="13.026" y="8.183" class="f">/tmp/demo-app</text><use xlink:href="#3" y="8.684"/><text x="2.004" y="12.525" class="f">Files</text><text x="8.016" y="12.525" class="f">scanned:</text><text x="22.044" y="12.525" class="f">1</text><text x="2.004" y="14.696" class="f">Prohibited:</text><text x="22.044" y="14.696" class="f">0</text><text x="2.004" y="16.867" class="f">Credentials:</text><text x="22.044" y="16.867" class="f">0</text><text x="2.004" y="19.038" class="f">High-risk:</text><text x="22.044" y="19.038" class="f">1</text><text x="2.004" y="21.209" class="f">Agent</text><text x="8.016" y="21.209" class="f">autonomy:</text><text x="22.044" y="21.209" class="f">0</text><text x="2.004" y="23.38" class="f">Limited-risk:</text><text x="22.044" y="23.38" class="f">0</text><text x="2.004" y="25.551" class="f">Suppressed:</text><text x="22.044" y="25.551" class="f">0</text><text x="2.004" y="27.722" class="f">BLOCK</text><text x="8.016" y="27.722" class="f">tier:</text><text x="22.044" y="27.722" class="f">1</text><text x="2.004" y="29.893" class="f">WARN</text><text x="7.014" y="29.893" class="f">tier:</text><text x="22.044" y="29.893" class="f">0</text><text x="2.004" y="32.064" class="f">INFO</text><text x="7.014" y="32.064" class="f">tier:</text><text x="22.044" y="32.064" class="f">0</text><text x="2.004" y="36.406" class="k">HIGH-RISK</text><text x="12.024" y="36.406" class="k">INDICATORS</text><text x="22.044" y="36.406" class="f">:</text><text x="4.008" y="38.577" class="f">[BLOCK]</text><text x="12.024" y="38.577" class="f">[</text><text x="14.028" y="38.577" class="f">93]</text><text x="18.036" y="38.577" class="f">app.py</text><text x="25.05" y="38.577" class="f">—</text><text x="27.054" y="38.577" class="f">Access</text><text x="34.068" y="38.577" class="f">to</text><text x="37.074" y="38.577" class="f">essential</text><text x="47.094" y="38.577" class="f">services</text><text x="6.012" y="40.748" class="f">Add</text><text x="10.02" y="40.748" class="f">explainability</text><text x="25.05" y="40.748" class="f">and</text><text x="29.058" y="40.748" class="f">human</text><text x="35.07" y="40.748" class="f">override</text><text x="44.088" y="40.748" class="f">for</text><text x="48.096" y="40.748" class="f">credit/financial</text><text x="65.13" y="40.748" class="f">decisions</text><use xlink:href="#3" y="41.249"/><text x="2.004" y="45.09" class="f">Confidence</text><text x="13.026" y="45.09" class="f">scores:</text><text x="21.042" y="45.09" class="f">0-100</text><text x="27.054" y="45.09" class="f">(higher</text><text x="35.07" y="45.09" class="f">=</text><text x="37.074" y="45.09" class="f">more</text><text x="42.084" y="45.09" class="f">indicators</text><text x="53.106" y="45.09" class="f">matched)</text><text x="2.004" y="47.261" class="f">Tiers:</text><text x="9.018" y="47.261" class="f">BLOCK</text><text x="15.03" y="47.261" class="f">(&gt;=80</text><text x="21.042" y="47.261" class="f">or</text><text x="24.048" y="47.261" class="f">prohibited),</text><text x="37.074" y="47.261" class="f">WARN</text><text x="42.084" y="47.261" class="f">(50-79),</text><text x="51.102" y="47.261" class="f">INFO</text><text x="56.112" y="47.261" class="f">(&lt;50)</text><text x="2.004" y="49.432" class="f">Suppress</text><text x="11.022" y="49.432" class="f">findings:</text><text x="21.042" y="49.432" class="f">add</text><text x="25.05" y="49.432" class="f">&apos;#</text><text x="28.056" y="49.432" class="f">regula-ignore&apos;</text><text x="43.086" y="49.432" class="f">to</text><text x="46.092" y="49.432" class="f">file</text></svg></svg></g></g></svg></svg>