<svg xmlns="http://www.w3.org/2000/svg" xmlns:xlink="http://www.w3.org/1999/xlink" width="1060" height="839.85"><rect width="1060" height="839.85" rx="5" ry="5" class="a"/><svg y="0%" x="0%"><circle cx="20" cy="20" r="6" fill="#ff5f58"/><circle cx="40" cy="20" r="6" fill="#ffbd2e"/><circle cx="60" cy="20" r="6" fill="#18c132"/></svg><svg height="759.85" viewBox="0 0 100 75.985" width="1000" x="25" xmlns="http://www.w3.org/2000/svg" xmlns:xlink="http://www.w3.org/1999/xlink" y="60"><style>@keyframes i{0%{transform:translateX(0)}.5%{transform:translateX(-100px)}to{transform:translateX(-200px)}}.a{fill:#282d35}.f{fill:#b9c0cb;white-space:pre}</style><g font-family="Monaco,Consolas,Menlo,'Bitstream Vera Sans Mono','Powerline Symbols',monospace" font-size="1.67"><defs><symbol id="1"><text y="1.67" class="f">$</text><text x="2.004" y="1.67" class="f">regula</text><text x="9.018" y="1.67" class="f">comply</text></symbol><symbol id="a"><path fill="transparent" d="M0 0h100v36H0z"/></symbol><symbol id="b"><path fill="#6f7683" d="M0 0h1.102v2.171H0z"/></symbol></defs><path class="a" d="M0 0h100v75.985H0z"/><g style="animation-duration:.537538s;animation-iteration-count:infinite;animation-name:i;animation-timing-function:steps(1,end)"><svg width="300"><svg><use xlink:href="#a"/><use xlink:href="#b" x="-.004"/></svg><svg x="100"><use xlink:href="#a"/><use xlink:href="#b" x="-.004" y="2.146"/><use xlink:href="#1"/></svg><svg x="200"><use xlink:href="#a"/><use xlink:href="#b" x="-.004" y="26.027"/><use xlink:href="#1"/><text y="3.841" class="f">usage:</text><text x="7.014" y="3.841" class="f">regula</text><text x="14.028" y="3.841" class="f">[-h]</text><text x="19.038" y="3.841" class="f">[--ci]</text><text x="26.052" y="3.841" class="f">[--config</text><text x="36.072" y="3.841" class="f">CONFIG]</text><text x="44.088" y="3.841" class="f">[--rules</text><text x="53.106" y="3.841" class="f">RULES]</text><text x="60.12" y="3.841" class="f">[--lang</text><text x="68.136" y="3.841" class="f">{en,pt-BR,de}]</text><text x="83.166" y="3.841" class="f">[--version]</text><text x="14.028" y="6.012" class="f">{init,check,classify,report,audit,mcp-server,bias,discover,install,status,feed,questio</text><text y="8.183" class="f">nnaire,session,baseline,docs,compliance,gap,plan,disclose,fix,evidence-pack,benchmark,timeline,deps,</text><text y="10.354" class="f">doctor,metrics,security-self-check,self-test,sbom,agent,inventory,assess,quickstart,feedback,telemet</text><text y="12.525" class="f">ry,config}</text><text x="14.028" y="14.696" class="f">...</text><text y="16.867" class="f">regula:</text><text x="8.016" y="16.867" class="f">error:</text><text x="15.03" y="16.867" class="f">argument</text><text x="24.048" y="16.867" class="f">command:</text><text x="33.066" y="16.867" class="f">invalid</text><text x="41.082" y="16.867" class="f">choice:</text><text x="49.098" y="16.867" class="f">&apos;comply&apos;</text><text x="58.116" y="16.867" class="f">(choose</text><text x="66.132" y="16.867" class="f">from</text><text x="71.142" y="16.867" class="f">&apos;init&apos;,</text><text x="79.158" y="16.867" class="f">&apos;check&apos;,</text><text x="88.176" y="16.867" class="f">&apos;classify&apos;,</text><text y="19.038" class="f">&apos;report&apos;,</text><text x="10.02" y="19.038" class="f">&apos;audit&apos;,</text><text x="19.038" y="19.038" class="f">&apos;mcp-server&apos;,</text><text x="33.066" y="19.038" class="f">&apos;bias&apos;,</text><text x="41.082" y="19.038" class="f">&apos;discover&apos;,</text><text x="53.106" y="19.038" class="f">&apos;install&apos;,</text><text x="64.128" y="19.038" class="f">&apos;status&apos;,</text><text x="74.148" y="19.038" class="f">&apos;feed&apos;,</text><text x="82.164" y="19.038" class="f">&apos;questionnaire&apos;,</text><text x="99.198" y="19.038" class="f">&apos;</text><text y="21.209" class="f">session&apos;,</text><text x="10.02" y="21.209" class="f">&apos;baseline&apos;,</text><text x="22.044" y="21.209" class="f">&apos;docs&apos;,</text><text x="30.06" y="21.209" class="f">&apos;compliance&apos;,</text><text x="44.088" y="21.209" class="f">&apos;gap&apos;,</text><text x="51.102" y="21.209" class="f">&apos;plan&apos;,</text><text x="59.118" y="21.209" class="f">&apos;disclose&apos;,</text><text x="71.142" y="21.209" class="f">&apos;fix&apos;,</text><text x="78.156" y="21.209" class="f">&apos;evidence-pack&apos;,</text><text x="95.19" y="21.209" class="f">&apos;benc</text><text y="23.38" class="f">hmark&apos;,</text><text x="8.016" y="23.38" class="f">&apos;timeline&apos;,</text><text x="20.04" y="23.38" class="f">&apos;deps&apos;,</text><text x="28.056" y="23.38" class="f">&apos;doctor&apos;,</text><text x="38.076" y="23.38" class="f">&apos;metrics&apos;,</text><text x="49.098" y="23.38" class="f">&apos;security-self-check&apos;,</text><text x="72.144" y="23.38" class="f">&apos;self-test&apos;,</text><text x="85.17" y="23.38" class="f">&apos;sbom&apos;,</text><text x="93.186" y="23.38" class="f">&apos;agent&apos;</text><text y="25.551" class="f">,</text><text x="2.004" y="25.551" class="f">&apos;inventory&apos;,</text><text x="15.03" y="25.551" class="f">&apos;assess&apos;,</text><text x="25.05" y="25.551" class="f">&apos;quickstart&apos;,</text><text x="39.078" y="25.551" class="f">&apos;feedback&apos;,</text><text x="51.102" y="25.551" class="f">&apos;telemetry&apos;,</text><text x="64.128" y="25.551" class="f">&apos;config&apos;)</text></svg></svg></g></g></svg></svg>